<svg fill="#000000" xmlns="http://www.w3.org/2000/svg" viewBox="50.09 17.56 94.57 94.6">
    <path d="M99.0084 68.3983L102.924 52.4297L83.4102 59.9654L99.0084 68.3983Z" fill="#ffffff"></path>
    <path d="M101.248 32.7773L92.0586 32.377L75.2148 36.6793L79.3945 55.4044L101.248 32.7773Z" fill="#FBFBFB"></path>
    <path d="M105.498 47.184L104.105 35.5234L85.3203 54.9725L105.498 47.184Z" fill="#FBFBFB"></path>
    <path d="M128.467 49.6729L120.27 40.1357L107.945 34.2471L109.374 46.166L128.467 49.6729Z" fill="#FBFBFB"></path>
    <path d="M71.7196 39.2275L61.2383 49.905L75.4777 56.0673L71.7196 39.2275Z" fill="#FBFBFB"></path>
    <path d="M127.41 53.5135L107.637 49.875L103.352 67.3377L127.41 53.5135Z" fill="#FBFBFB"></path>
    <path d="M79.2908 62.2441L75.6133 71.7403L82.3001 82.4835L96.6619 71.6393L79.2908 62.2441Z" fill="#FBFBFB"></path>
    <path d="M107.105 69.751L132.855 71.1646L134.841 68.0226L132.045 55.4248L107.105 69.751Z" fill="#FBFBFB"></path>
    <path
        d="M97.3791 17.5645C71.2641 17.5645 50.0938 38.7416 50.0938 64.8652C50.0938 90.9893 71.2641 112.166 97.3791 112.166C123.495 112.166 144.665 90.9893 144.665 64.8652C144.665 38.7416 123.495 17.5645 97.3791 17.5645ZM129.456 83.971C129.051 84.6195 128.311 84.9794 127.536 84.8779L113.574 83.1447L111.492 88.339L111.821 99.2853C111.847 100.116 111.355 100.871 110.59 101.18C110.347 101.282 110.094 101.327 109.846 101.327C109.298 101.327 108.771 101.104 108.386 100.689L96.1014 87.3563H81.7648H81.7546C81.5972 87.3515 81.4452 87.3311 81.2932 87.2956C81.2379 87.2806 81.1922 87.2601 81.1364 87.2397C81.0402 87.2096 80.9441 87.1742 80.8474 87.1231C80.7921 87.093 80.7411 87.0522 80.6906 87.0221C80.6095 86.9711 80.5338 86.9157 80.4575 86.8497C80.407 86.804 80.3614 86.7481 80.3109 86.6976C80.27 86.6519 80.2244 86.6165 80.1841 86.566C80.1637 86.5407 80.1487 86.5053 80.1283 86.4746C80.1132 86.4542 80.0976 86.4392 80.0826 86.4188L72.0837 73.5625L58.6736 68.4542C57.9694 68.1909 57.478 67.5473 57.4071 66.7972L55.8318 50.7729C55.827 50.7425 55.8318 50.7172 55.8318 50.6868C55.827 50.6006 55.827 50.5145 55.8367 50.4283C55.842 50.3776 55.8469 50.3219 55.8522 50.2661C55.8673 50.1851 55.8823 50.104 55.9076 50.028C55.9231 49.9722 55.9382 49.9165 55.9586 49.8608C55.9688 49.8354 55.9736 49.81 55.9838 49.7847C56.0091 49.729 56.0397 49.6834 56.0649 49.6327C56.0902 49.5871 56.1154 49.5364 56.146 49.4908C56.2019 49.4097 56.2626 49.3388 56.3233 49.2678C56.3485 49.2425 56.3635 49.2121 56.3893 49.1868L71.4446 33.8474C71.4548 33.8322 71.4698 33.8272 71.48 33.817C71.5815 33.7207 71.6927 33.6346 71.8194 33.5586C71.8549 33.5332 71.8957 33.513 71.9312 33.4927C72.0472 33.4319 72.1691 33.3812 72.2958 33.3457C72.3211 33.3356 72.3415 33.3204 72.3667 33.3154L91.3594 28.4606C91.5468 28.4149 91.7391 28.3896 91.9368 28.3997L105.812 29.0079C105.847 29.0079 105.888 29.0231 105.929 29.0231C105.999 29.0332 106.07 29.0383 106.147 29.0535C106.202 29.0687 106.258 29.0839 106.314 29.0991C106.385 29.1193 106.451 29.1447 106.517 29.1751C106.537 29.1852 106.557 29.1903 106.582 29.2004L122.352 36.7359C122.6 36.8525 122.823 37.0248 123.001 37.2326L134.87 51.0462C134.875 51.0462 134.875 51.0462 134.875 51.0513L134.891 51.0716C134.906 51.0919 134.916 51.1071 134.926 51.1273C134.992 51.2084 135.052 51.2844 135.108 51.3756C135.118 51.3959 135.129 51.4162 135.133 51.4365C135.159 51.4821 135.174 51.5277 135.195 51.5733C135.235 51.6696 135.275 51.7659 135.296 51.8672C135.306 51.8925 135.316 51.9128 135.321 51.9382L138.882 67.9663C138.999 68.4784 138.903 69.0151 138.624 69.4562L129.456 83.971Z"
        fill="#FBFBFB"></path>
    <path
        d="M99.4834 77.2809L98.6224 75.127L87.6797 83.3874H96.9655C97.5181 83.3874 98.0499 83.6201 98.4199 84.0257L104.352 90.4665L99.4785 77.2809H99.4834Z"
        fill="#FBFBFB"></path>
    <path d="M60.1016 53.7373L61.2262 65.1897L72.2748 69.396L75.7197 60.4924L60.1016 53.7373Z" fill="#FBFBFB"></path>
    <path
        d="M103.553 76.7689L103.523 76.784L107.545 87.6593C107.571 87.5175 107.606 87.3805 107.661 87.2489L110.468 80.2553C110.808 79.4193 111.658 78.9126 112.551 79.0292L126.781 80.7877L130.434 75.0056L102.227 73.4551L103.553 76.7689Z"
        fill="#FBFBFB"></path>
</svg>